<?xml version="1.0" encoding="UTF-8"?><svg id="b" xmlns="http://www.w3.org/2000/svg" viewBox="0 0 331 549.39"><g id="c"><g><path d="M226.18,67.89H80.75c32.75,34.68,80.71,86.27,113.46,124.34,72.32,82.05,95.93,132.81,95.93,204.7,0,91.36-57.11,146.33-129.45,146.33-44.15,0-80.71-21.14-104.31-50.75L12.99,424l17.51-17.76c19.8,32.99,52.53,78.66,105.07,78.66,55.59,0,89.09-40.6,89.09-110.81s-45.69-141.26-93.65-203.85C93.71,122.02,48.02,72.11,6.13,26.43V6.13H293.2c7.61,31.3,20.56,74.44,30.45,112.5l-19.03,6.77c-25.89-53.29-37.31-57.52-78.43-57.52Z"/><path d="M160.7,549.39c-42.47,0-82.23-19.34-109.1-53.06l-.38-.54L5.2,423.16l26.49-26.86,4.07,6.78c40.71,67.84,76.46,75.68,99.81,75.68,25.83,0,46.22-9.02,60.62-26.8,14.61-18.04,22.33-44.97,22.33-77.88,0-73.41-47.69-141.79-92.39-200.12C88.55,125.39,42.37,75.02,1.61,30.58l-1.61-1.76V0H298.02l1.14,4.68c4.19,17.22,9.95,37.89,16.06,59.77,4.88,17.5,9.93,35.59,14.37,52.65l1.41,5.44-29.5,10.49-2.4-4.94c-25.3-52.08-35.17-54.07-72.92-54.07H94.96c28.5,30.32,72.43,77.62,103.9,114.21,72.82,82.62,97.42,135.3,97.42,208.7,0,45.31-13.57,83.9-39.23,111.59-24.43,26.36-58.64,40.87-96.35,40.87Zm-99.3-60.45c24.53,30.63,60.7,48.18,99.3,48.18,34.25,0,65.27-13.12,87.35-36.94,23.53-25.39,35.96-61.09,35.96-103.26,0-36.4-6.25-65.99-20.27-95.94-14.21-30.37-37.07-62.66-74.13-104.7-35.22-40.94-86.11-95.38-113.32-124.18l-9.77-10.34H226.18c19.3,0,35.12,.73,48.4,9.85,11.04,7.59,20.23,20.32,33.12,46.19l8.58-3.05c-4.05-15.34-8.53-31.41-12.89-47-5.6-20.04-10.91-39.07-15.01-55.48H12.27v11.78c40.52,44.18,86.17,94.07,123.6,142.43,45.94,59.95,94.93,130.36,94.93,207.61,0,73.23-35.6,116.95-95.22,116.95-51.52,0-84.9-40.92-106.21-74.91l-8.59,8.71,40.62,64.11Z"/></g></g></svg>