<?xml version="1.0" encoding="UTF-8"?><svg id="b" xmlns="http://www.w3.org/2000/svg" viewBox="0 0 913.31 113.43"><g id="c"><g><g><path d="M16.71,25.25V57.95c0,4.37,1.07,7.91,3.2,10.61,2.13,2.7,5.27,4.06,9.44,4.06,3.87,0,6.93-1.19,9.18-3.55,2.23-2.37,3.34-5.95,3.34-10.75V25.25h16.72V58.77c0,9.41-2.59,16.67-7.78,21.77-5.19,5.1-12.36,7.65-21.46,7.65s-16.38-2.61-21.56-7.83c-5.19-5.22-7.79-12.29-7.79-21.22V25.25H16.71Z" style="fill:#fff;"/><path d="M86.39,25.25l28.85,34.61V25.25h16.56v62.12h-14.92l-28.77-34.61v34.61h-16.56V25.25h14.84Z" style="fill:#fff;"/><path d="M169.91,25.25c10.27,0,18.24,2.8,23.9,8.38,5.66,5.59,8.48,13.15,8.48,22.67s-2.54,17.55-7.61,22.95c-5.09,5.4-12.99,8.11-23.69,8.11h-25.73V25.25h24.67Zm-.65,49.27c5.51,0,9.56-1.49,12.13-4.46,2.56-2.98,3.85-7.44,3.85-13.39,0-6.31-1.42-11.05-4.27-14.21-2.83-3.16-6.83-4.74-11.97-4.74h-7.04v36.79h7.29Z" style="fill:#fff;"/><path d="M265.13,79.31c-5.72,5.92-13.33,8.88-22.83,8.88s-17.21-2.97-22.91-8.92c-5.72-5.95-8.57-13.6-8.57-22.95s2.8-16.77,8.41-22.81c5.6-6.04,13.34-9.07,23.23-9.07s17.03,2.96,22.71,8.88c5.68,5.92,8.53,13.58,8.53,22.99s-2.86,17.08-8.56,23Zm-33.37-11.43c2.6,2.91,6.11,4.37,10.54,4.37s7.98-1.47,10.53-4.42c2.54-2.94,3.81-6.78,3.81-11.52s-1.27-8.5-3.81-11.47c-2.55-2.98-6.08-4.46-10.61-4.46s-7.93,1.43-10.5,4.28c-2.57,2.86-3.85,6.74-3.85,11.66s1.29,8.65,3.89,11.57Z" style="fill:#fff;"/><path d="M299.51,25.25l28.85,34.61V25.25h16.56v62.12h-14.92l-28.77-34.61v34.61h-16.55V25.25h14.84Z" style="fill:#fff;"/><path d="M399.5,25.25v12.48h-24.42v11.38h23.28v12.48h-23.28v13.3h25.08v12.48h-41.8V25.25h41.14Z" style="fill:#fff;"/></g><path d="M447.87,35.93l12.3,15.49,12.05-15.49h7.12l-15.65,20.13,16.48,20.76h-7.21l-12.78-16.03-12.38,16.03h-7.06l15.9-20.68-15.82-20.22h7.06Z" style="fill:#fff;"/><g><path d="M678.28,83.4c2.82,0,5.48,1.1,7.48,3.1l.53,.53,2.83-2.83-.53-.53c-2.76-2.76-6.42-4.28-10.32-4.28-8.05,0-14.6,6.55-14.6,14.6s6.55,14.6,14.6,14.6c3.89,0,7.56-1.52,10.32-4.28l.53-.53-2.83-2.83-.53,.53c-2,2-4.66,3.1-7.48,3.1-5.12,0-9.45-3.63-10.4-8.58h17.44v-4.01h-17.44c.95-4.95,5.28-8.58,10.4-8.58Z" style="fill:#fff;"/><polygon points="860.99 91.98 846.11 91.98 846.11 79.38 842.1 79.38 842.1 108.58 846.11 108.58 846.11 95.99 860.99 95.99 860.99 108.58 865 108.58 865 79.38 860.99 79.38 860.99 91.98" style="fill:#fff;"/><path d="M825.8,91.98h-11.33c-2.37,0-4.29-1.93-4.29-4.29s1.93-4.29,4.29-4.29h15.23v-4.01h-15.23c-4.58,0-8.3,3.72-8.3,8.3s3.72,8.3,8.3,8.3h11.33c2.37,0,4.29,1.93,4.29,4.29s-1.93,4.29-4.29,4.29h-19.63v4.02h19.63c4.58,0,8.3-3.73,8.3-8.31s-3.72-8.3-8.3-8.3Z" style="fill:#fff;"/><path d="M767.95,100.28v-20.89h-4.01v20.89c0,4.58,3.72,8.3,8.3,8.3h13.32v-4.01h-13.32c-2.37,0-4.29-1.93-4.29-4.29Z" style="fill:#fff;"/><path d="M756.62,91.98h-15.22v4.01h11.14c-.95,4.95-5.28,8.58-10.4,8.58-5.84,0-10.59-4.75-10.59-10.59s4.75-10.59,10.59-10.59c2.82,0,5.48,1.1,7.48,3.1l.53,.53,2.83-2.83-.53-.53c-2.76-2.76-6.42-4.28-10.32-4.28-8.05,0-14.6,6.55-14.6,14.6s6.55,14.6,14.6,14.6,14.6-6.55,14.6-14.6c0-.42-.02-.86-.06-1.33l-.06-.68Z" style="fill:#fff;"/><rect x="793.55" y="79.39" width="4.14" height="29.19" style="fill:#fff;"/><path d="M708.14,79.33c-6.31,0-11.45,5.14-11.45,11.45v17.8h4.01v-17.8c0-4.1,3.34-7.44,7.44-7.44s7.44,3.34,7.44,7.44v17.8h4.01v-17.8c0-6.31-5.14-11.45-11.45-11.45Z" style="fill:#fff;"/><path d="M773.28,54.95v-19.37c0-7.13-5.78-12.92-12.92-12.92h-12.92c-7.13,0-12.92,5.78-12.92,12.92v19.37c0,7.13,5.78,12.92,12.92,12.92h12.92c7.13,0,12.92-5.78,12.92-12.92Zm-12.92,0c0,3.57-2.89,6.46-6.46,6.46s-6.46-2.89-6.46-6.46v-19.37c0-3.57,2.89-6.46,6.46-6.46s6.46,2.89,6.46,6.46v19.37Z" style="fill:#fff;"/><path d="M853.69,22.87V54.95c0,3.57-2.89,6.46-6.46,6.46h-6.46V22.66h-12.92v45.2h16.25c12.43,0,22.5-10.07,22.5-22.5V22.66h-12.92v.21Z" style="fill:#fff;"/><rect x="805.36" y="22.66" width="12.92" height="45.2" style="fill:#fff;"/><path d="M641.2,22.66h-6.46c-3.57,0-6.46,2.89-6.46,6.46V3.29h-12.92V67.87h12.92V35.58c0-3.57,2.89-6.46,6.46-6.46s6.46,2.89,6.46,6.46v32.29h12.92V35.58c0-7.13-5.78-12.92-12.92-12.92Z" style="fill:#fff;"/><path d="M900.4,48.5h12.92v-12.92c0-7.13-5.78-12.92-12.92-12.92h-12.92c-7.13,0-12.92,5.78-12.92,12.92v19.37c0,7.13,5.78,12.92,12.92,12.92h12.92c7.13,0,12.92-5.78,12.92-12.92h-6.46c0,3.57-2.89,6.46-6.46,6.46h-6.46c-3.57,0-6.46-2.89-6.46-6.46v-6.46h12.92Zm-12.92-12.92c0-3.57,2.89-6.46,6.46-6.46s6.46,2.89,6.46,6.46v6.46h-12.92v-6.46Z" style="fill:#fff;"/><rect x="712.03" y="3.29" width="12.92" height="64.58" style="fill:#fff;"/><rect x="782.86" y="3.29" width="12.92" height="64.58" style="fill:#fff;"/><path d="M702.45,54.95v-19.37c0-7.13-5.78-12.92-12.92-12.92h-12.92c-7.13,0-12.92,5.78-12.92,12.92v19.37c0,7.13,5.78,12.92,12.92,12.92h12.92c7.13,0,12.92-5.78,12.92-12.92Zm-12.92,0c0,3.57-2.89,6.46-6.46,6.46s-6.46-2.89-6.46-6.46v-19.37c0-3.57,2.89-6.46,6.46-6.46s6.46,2.89,6.46,6.46v19.37Z" style="fill:#fff;"/><rect x="805.36" y="9.75" width="12.92" height="6.46" style="fill:#fff;"/><path d="M599.22,41.3c-.02-.51-.09-1.02-.2-1.52h0c-.03-.11-.02-.23-.05-.34,0-.02-.02-.04-.03-.07h0c-.18-.62-.44-1.22-.77-1.79-.1-.17-.21-.32-.32-.48-.28-.42-.61-.81-.98-1.18h0c-.15-.15-.29-.29-.45-.43h0c-.54-.46-1.14-.89-1.84-1.22l-35.58-16.7L523.43,.86c-.69-.32-1.39-.53-2.1-.67-.23-.05-.45-.05-.68-.07-.34-.04-.68-.11-1.02-.11-.14,0-.27,.03-.41,.04-.23,.01-.45,.04-.67,.07-.46,.06-.91,.15-1.36,.28-.21,.06-.41,.11-.62,.19-.52,.19-1.02,.43-1.49,.71-.09,.06-.2,.09-.29,.15-.55,.36-1.06,.78-1.52,1.25-.13,.13-.24,.28-.36,.42-.32,.36-.61,.75-.87,1.16-.12,.19-.23,.39-.33,.6-.22,.42-.4,.87-.55,1.33-.07,.2-.14,.4-.19,.61-.17,.68-.28,1.39-.28,2.14h0v8.05h0v57.28h0v30.2c0,5.17,4.24,8.95,8.94,8.95,1.26,0,2.55-.27,3.8-.86l71.16-33.4c3.12-1.46,4.67-4.41,4.67-7.36v-22.14h0v-8.05h0c0-.11-.04-.22-.04-.33Zm-2.96,14.63c-.51,.41-1.03,.8-1.67,1.1l-71.16,33.4c-3.47,1.63-7.2,.78-9.73-1.48v-8.05c2.53,2.26,6.27,3.11,9.73,1.48l71.16-33.4c.64-.3,1.16-.69,1.67-1.1v8.05Zm-2.95,20.53l-71.16,33.4c-.81,.38-1.66,.57-2.52,.57-2.85,0-5.93-2.27-5.93-5.95v-4.46c2.53,2.26,6.27,3.11,9.73,1.48l71.16-33.4c.64-.3,1.16-.69,1.67-1.1v4.82c0,2.04-1.1,3.77-2.95,4.64Z" style="fill:#fff;"/></g></g></g></svg>