<?xml version="1.0" encoding="UTF-8"?><svg xmlns="http://www.w3.org/2000/svg" xmlns:xlink="http://www.w3.org/1999/xlink" viewBox="0 0 555.3 641.2"><defs><linearGradient id="d" x1="-7158.18" y1="-5579.5" x2="-7775.57" y2="-4735.31" gradientTransform="translate(-4721.69 7903.08) rotate(90)" gradientUnits="userSpaceOnUse"><stop offset="0" stop-color="#494b4e"/><stop offset="1" stop-color="#1e1d21"/></linearGradient><linearGradient id="e" x1="-7458.52" y1="-5136.8" x2="-7754.97" y2="-4735.96" gradientTransform="translate(-4721.69 7903.08) rotate(90)" gradientUnits="userSpaceOnUse"><stop offset="0" stop-color="#494b4e"/><stop offset="1" stop-color="#2a2b2f"/></linearGradient><linearGradient id="f" x1="-7582.48" y1="-5275.19" x2="-7582.48" y2="-4984.34" gradientTransform="translate(-4721.69 7903.08) rotate(90)" gradientUnits="userSpaceOnUse"><stop offset="0" stop-color="#494b4e"/><stop offset="1" stop-color="#000"/></linearGradient></defs><g style="isolation:isolate;"><g id="b"><g id="c"><g style="opacity:.71;"><polygon points="0 160.3 277.65 0 555.3 160.3 555.3 480.9 277.65 641.2 0 480.9 0 160.3" style="fill:url(#d);"/><polygon points="5.54 480.9 5.54 160.3 280.42 1.6 277.65 0 0 160.3 0 480.9 277.65 641.2 280.42 639.6 5.54 480.9" style="fill:url(#e); mix-blend-mode:overlay;"/><polygon points="546.51 160.3 546.51 480.9 273.25 638.66 277.65 641.2 555.3 480.9 555.3 160.3 277.65 0 273.25 2.54 546.51 160.3" style="fill:url(#f); mix-blend-mode:screen;"/></g></g></g></g></svg>