<?xml version="1.0" encoding="UTF-8"?><svg id="b" xmlns="http://www.w3.org/2000/svg" viewBox="0 0 1023.5 215.99"><g id="c"><g><path d="M97.08,173.65v41.87H0V.47H94.86V42.34H43.12v43.88h44.6v41.87H43.12v45.55h53.96Z" style="fill:#fff;"/><path d="M207.71,173.65v41.87H115.56V.47h43.12V173.65h49.03Z" style="fill:#fff;"/><path d="M265.61,.47V215.52h-43.12V.47h43.12Z" style="fill:#fff;"/><path d="M389.79,42.34l-59.38,131.3h57.66v41.87h-102.75v-41.87l59.38-131.3h-56.18V.47h101.27V42.34Z" style="fill:#fff;"/><path d="M485.15,183.36h-37.95l-5.17,32.16h-42.38L440.3,.47h52.48l40.66,215.04h-43.37l-4.93-32.16Zm-6.65-41.54l-12.07-77.38-12.57,77.38h24.64Z" style="fill:#fff;"/><path d="M620.67,.47c26.37,0,36.22,16.41,36.22,41.54v27.47c0,17.42-2.22,30.82-11.83,37.85,9.61,5.69,11.83,17.42,11.83,34.5v32.16c0,25.12-9.86,41.54-36.22,41.54h-72.44V.47h72.44Zm-6.16,45.89c0-5.02-1.97-7.37-6.16-7.37h-17.74v49.57h17.74c4.19,0,6.16-2.34,6.16-7.37V46.36Zm0,88.09c0-5.02-1.97-7.37-6.16-7.37h-17.74v49.91h17.74c4.19,0,6.16-2.34,6.16-7.37v-35.17Z" style="fill:none; stroke:#fff; stroke-miterlimit:10; stroke-width:.94px;"/><path d="M777.37,173.65v41.87h-97.08V.47h94.86V42.34h-51.74v43.88h44.6v41.87h-44.6v45.55h53.96Z" style="fill:none; stroke:#fff; stroke-miterlimit:10; stroke-width:.94px;"/><path d="M891.21,42.34h-30.55V215.52h-43.12V42.34h-30.31V.47h103.98V42.34Z" style="fill:none; stroke:#fff; stroke-miterlimit:10; stroke-width:.94px;"/><path d="M1023.03,.47V215.52h-42.38v-85.08h-31.05v85.08h-42.38V.47h42.38V88.57h31.05V.47h42.38Z" style="fill:none; stroke:#fff; stroke-miterlimit:10; stroke-width:.94px;"/></g></g></svg>