<?xml version="1.0" encoding="UTF-8"?><svg id="b" xmlns="http://www.w3.org/2000/svg" viewBox="0 0 624.91 216.89"><g id="c"><g><path d="M30.25,148.88l-2.31-2.56H9.71c-7.07,0-9.71-3.48-9.71-8.8v-4.12c0-4.9,1.59-6.75,6.21-9.51l1.06-.64-.26-.35c-3.37-3.76-4.62-5.61-4.62-8.52v-4.83c0-5.33,2.64-8.8,9.71-8.8h7.73c7.07,0,9.51,3.48,9.51,8.8v4.83c0,5.61-2.44,7.53-6.94,10.44l-1.06,.64,7,8.02v-4.97h9.12v9.02c0,1.92-.4,3.62-1.25,4.97l5.55,6.39h-11.49Zm-9.58-10.72l-7.13-7.95-1.12,.71c-.99,.64-1.52,1.28-1.52,2.7v2.98c0,1.06,.53,1.56,1.65,1.56h8.12Zm-7.07-23.29c0,1.56,.33,2.2,1.52,3.55,2.25-1.35,3.3-1.99,3.3-3.83v-4.33c0-1.06-.53-1.56-1.65-1.56h-1.52c-1.12,0-1.65,.5-1.65,1.56v4.61Z" style="fill:#fff;"/><g style="opacity:.4;"><path d="M172.49,145.76v70.59h-54.73v-69.92L62.41,.54h55.98l26.27,91.1L169.05,.54h55.67l-52.23,145.22Z" style="fill:none; stroke:#fff; stroke-miterlimit:10; stroke-width:1.07px;"/><path d="M372.32,.54c33.46,0,45.97,16.47,45.97,41.68V174.67c0,25.21-12.51,41.68-45.97,41.68h-46.28c-33.46,0-45.97-16.47-45.97-41.68V42.22c0-25.21,12.51-41.68,45.97-41.68h46.28Zm-8.76,49.42c0-5.04-2.5-7.4-7.82-7.4h-13.13c-5.32,0-7.82,2.35-7.82,7.4v116.99c0,5.04,2.5,7.4,7.82,7.4h13.13c5.32,0,7.82-2.35,7.82-7.4V49.95Z" style="fill:#fff;"/><path d="M624.37,.54V174.67c0,25.21-12.51,41.68-45.97,41.68h-46.28c-33.46,0-45.97-16.47-45.97-41.68V.54h54.73V166.94c0,5.04,2.5,7.4,7.82,7.4h13.13c5.32,0,7.82-2.35,7.82-7.4V.54h54.73Z" style="fill:none; stroke:#fff; stroke-miterlimit:10; stroke-width:1.07px;"/></g></g></g></svg>