<?xml version="1.0" encoding="UTF-8"?><svg id="b" xmlns="http://www.w3.org/2000/svg" viewBox="0 0 1025.26 290.12"><g id="c"><g><path d="M71.84,1.47V284.78H0V1.47H71.84Z" style="fill:#fff;"/><path d="M295.97,184.17h-4.52v100.61h-71.84V1.47h121.92c43.92,0,60.34,21.62,60.34,54.72v73.25c0,26.04-9.85,44.57-35.3,51.63l48.44,103.7h-77.17l-41.87-100.61Zm-4.52-127.53v75.02h28.33c6.98,0,10.26-3.09,10.26-9.71v-55.6c0-6.62-3.28-9.71-10.26-9.71h-28.33Z" style="fill:none; stroke:#fff; stroke-miterlimit:10; stroke-width:2.95px;"/><path d="M602.2,12.99l25.04,134.15,22.17-134.15h70.2l-51.31,215.79c-10.67,38.39-30.79,61.34-77.59,61.34h-34.48v-54.28h30.38c11.91,0,20.12-2.65,24.63-17.65l.82-2.65h-26.68L529.13,12.99h73.07Z" style="fill:#fff;"/><path d="M951.95,179.75c0-6.62-3.28-9.71-10.26-9.71h-39.41c-42.69,0-55.42-22.51-55.42-55.6V56.19c0-33.1,16.01-54.72,59.93-54.72h56.24c43.92,0,59.93,21.62,59.93,54.72v33.98h-71.84v-23.83c0-6.62-3.28-9.71-10.26-9.71h-11.9c-6.98,0-10.26,3.09-10.26,9.71v41.92c0,6.62,3.28,9.71,10.26,9.71h38.59c42.69,0,56.24,20.74,56.24,53.84v58.25c0,33.1-16.01,54.72-59.93,54.72h-55.83c-43.92,0-60.34-21.62-60.34-54.72v-33.98h71.84v23.83c0,6.62,3.28,9.71,10.26,9.71h11.91c6.98,0,10.26-3.09,10.26-9.71v-40.16Z" style="fill:none; stroke:#fff; stroke-miterlimit:10; stroke-width:2.95px;"/></g></g></svg>