<?xml version="1.0" encoding="UTF-8"?><svg id="b" xmlns="http://www.w3.org/2000/svg" viewBox="0 0 359.99 673.38"><g id="c"><g><g><path d="M166.16,542.6H5.6c-.58,0-1.05-.47-1.05-1.05s.47-1.05,1.05-1.05H165.83l186.36-131.06c.48-.33,1.13-.22,1.46,.25,.33,.47,.22,1.13-.25,1.46l-186.63,131.25c-.18,.12-.39,.19-.6,.19Z" style="fill:#fff;"/><circle cx="350.82" cy="411.81" r="5.6" style="fill:#fff;"/><circle cx="5.6" cy="541.55" r="5.6" style="fill:#fff;"/></g><g><path d="M297.54,668.83H51.16c-.58,0-1.05-.47-1.05-1.05s.47-1.05,1.05-1.05h246.06l56.58-37.63c.48-.32,1.13-.19,1.46,.29,.32,.48,.19,1.13-.29,1.46l-56.85,37.81c-.17,.11-.37,.18-.58,.18Z" style="fill:#fff;"/><circle cx="354.39" cy="629.98" r="5.6" style="fill:#fff;"/><circle cx="51.16" cy="667.78" r="5.6" style="fill:#fff;"/></g><g><path d="M330.81,44.46c-.2,0-.4-.06-.58-.18L273.64,6.65H27.58c-.58,0-1.05-.47-1.05-1.05s.47-1.05,1.05-1.05h246.38c.21,0,.41,.06,.58,.18l56.85,37.81c.48,.32,.61,.97,.29,1.46-.2,.3-.54,.47-.88,.47Z" style="fill:#fff;"/><circle cx="330.81" cy="43.41" r="5.6" style="fill:#fff;"/><circle cx="27.58" cy="5.6" r="5.6" style="fill:#fff;"/></g><g><path d="M346.64,279.66c-.2,0-.4-.06-.57-.17l-159.43-104.4H12.96c-.58,0-1.05-.47-1.05-1.05s.47-1.05,1.05-1.05H186.95c.2,0,.4,.06,.58,.17l159.69,104.57c.49,.32,.62,.97,.3,1.45-.2,.31-.54,.47-.88,.47Z" style="fill:#fff;"/><circle cx="346.64" cy="278.97" r="5.6" style="fill:#fff;"/><circle cx="12.96" cy="174.04" r="5.6" style="fill:#fff;"/></g></g></g></svg>