<?xml version="1.0" encoding="UTF-8"?><svg id="b" xmlns="http://www.w3.org/2000/svg" viewBox="0 0 1020.35 190.32"><g id="c"><g><path d="M36.57,37.35v46.01h38.03v33.92H36.57v72.55H0V.49H80.45V37.35H36.57Z" style="fill:#fff;"/><path d="M196.83,.49V153.26c0,22.12-8.36,36.57-30.72,36.57h-30.93c-22.36,0-30.72-14.45-30.72-36.57V.49h36.57V146.48c0,4.42,1.67,6.49,5.22,6.49h8.78c3.55,0,5.22-2.06,5.22-6.49V.49h36.57Z" style="fill:none; stroke:#fff; stroke-miterlimit:10; stroke-width:.97px;"/><path d="M390.31,.49l-28.42,189.35h-42l-14.84-112.96-14.84,112.96h-42L219.81,.49h38.03l11.28,127.41L287.09,.49h35.73l17.97,127.41L354.16,.49h36.15Z" style="fill:#fff;"/><path d="M477.44,161.52h-32.18l-4.39,28.31h-35.94L439.41,.49h44.51l34.48,189.35h-36.78l-4.18-28.31Zm-5.64-36.57l-10.24-68.13-10.66,68.13h20.9Z" style="fill:none; stroke:#fff; stroke-miterlimit:10; stroke-width:.97px;"/><path d="M588.39,148.84l-16.51-78.75v119.74h-32.6V.49h39.91l21.73,101.16L622.66,.49h39.91V189.84h-32.39V69.5l-16.72,79.34h-25.08Z" style="fill:#fff;"/><path d="M752.83,.49c22.36,0,30.72,14.45,30.72,36.57v116.21c0,22.12-8.36,36.57-30.72,36.57h-30.93c-22.36,0-30.72-14.45-30.72-36.57V37.06c0-22.12,8.36-36.57,30.72-36.57h30.93Zm-5.85,43.36c0-4.42-1.67-6.49-5.22-6.49h-8.78c-3.55,0-5.22,2.06-5.22,6.49v102.64c0,4.42,1.67,6.49,5.22,6.49h8.78c3.55,0,5.22-2.06,5.22-6.49V43.84Z" style="fill:none; stroke:#fff; stroke-miterlimit:10; stroke-width:.97px;"/><path d="M865.45,71.27v-30.38c0-4.42-1.67-6.49-5.22-6.49h-7.31c-3.55,0-5.22,2.06-5.22,6.49v108.54c0,4.42,1.67,6.49,5.22,6.49h7.31c3.55,0,5.22-2.06,5.22-6.49v-29.2h36.57v33.03c0,22.12-8.36,36.57-30.72,36.57h-29.46c-22.36,0-30.72-14.45-30.72-36.57V37.06c0-22.12,8.36-36.57,30.72-36.57h29.46c22.36,0,30.72,14.45,30.72,36.57v34.21h-36.57Z" style="fill:#fff;"/><path d="M989.15,.49c22.36,0,30.72,14.45,30.72,36.57v116.21c0,22.12-8.36,36.57-30.72,36.57h-30.93c-22.36,0-30.72-14.45-30.72-36.57V37.06c0-22.12,8.36-36.57,30.72-36.57h30.93Zm-5.85,43.36c0-4.42-1.67-6.49-5.22-6.49h-8.78c-3.55,0-5.22,2.06-5.22,6.49v102.64c0,4.42,1.67,6.49,5.22,6.49h8.78c3.55,0,5.22-2.06,5.22-6.49V43.84Z" style="fill:none; stroke:#fff; stroke-miterlimit:10; stroke-width:.97px;"/></g></g></svg>