<?xml version="1.0" encoding="UTF-8"?><svg id="b" xmlns="http://www.w3.org/2000/svg" viewBox="0 0 1024.92 193.17"><g id="c"><g><path d="M72.42,72.33v-30.84c0-4.49-2.23-6.59-6.96-6.59h-9.75c-4.73,0-6.96,2.1-6.96,6.59v110.18c0,4.49,2.23,6.59,6.96,6.59h9.75c4.73,0,6.96-2.1,6.96-6.59v-29.64h48.74v33.53c0,22.45-11.14,37.12-40.94,37.12H40.94c-29.8,0-40.94-14.67-40.94-37.12V37.6C0,15.15,11.14,.48,40.94,.48h39.27c29.8,0,40.94,14.67,40.94,37.12v34.73h-48.74Z" style="fill:#fff;"/><path d="M230.33,163.95h-42.89l-5.85,28.74h-47.91L179.64,.48h59.32l45.96,192.21h-49.02l-5.57-28.74Zm-7.52-37.12l-13.65-69.16-14.2,69.16h27.85Z" style="fill:#fff;"/><path d="M405.79,155.26v37.42h-104.17V.48h48.74V155.26h55.43Z" style="fill:none; stroke:#fff; stroke-miterlimit:10; stroke-width:.95px;"/><path d="M526.67,155.26v37.42h-104.17V.48h48.74V155.26h55.43Z" style="fill:#fff;"/><path d="M592.11,.48V192.69h-48.74V.48h48.74Z" style="fill:none; stroke:#fff; stroke-miterlimit:10; stroke-width:.95px;"/><path d="M701.29,.48c29.8,0,40.94,14.67,40.94,37.12v117.96c0,22.45-11.14,37.12-40.94,37.12h-41.22c-29.8,0-40.94-14.67-40.94-37.12V37.6c0-22.45,11.14-37.12,40.94-37.12h41.22Zm-7.8,44.01c0-4.49-2.23-6.59-6.96-6.59h-11.7c-4.73,0-6.96,2.1-6.96,6.59v104.19c0,4.49,2.23,6.59,6.96,6.59h11.7c4.73,0,6.96-2.1,6.96-6.59V44.49Z" style="fill:#fff;"/><path d="M851.96,.48c29.8,0,40.94,14.67,40.94,37.12v55.09c0,22.45-11.14,37.12-40.94,37.12h-33.98v62.87h-48.74V.48h82.72Zm-7.8,44.01c0-4.49-2.23-6.59-6.96-6.59h-19.22v54.49h19.22c4.73,0,6.96-2.1,6.96-6.59V44.49Z" style="fill:none; stroke:#fff; stroke-miterlimit:10; stroke-width:.95px;"/><path d="M1024.92,155.26v37.42h-109.74V.48h107.23V37.9h-58.49v39.22h50.41v37.42h-50.41v40.72h61Z" style="fill:#fff;"/></g></g></svg>