<?xml version="1.0" encoding="UTF-8"?><svg id="b" xmlns="http://www.w3.org/2000/svg" viewBox="0 0 811.46 165.3"><g id="c"><g><path d="M54.6,23.94c-5.24-4.9-12.53-7.02-21.61-7.02H0v4.57c10.1,1.31,11.51,1.63,11.51,16.16V102.46c0,13.55-.51,14.53-11.51,16v4.57H35.29v-4.57c-11.77-1.63-12.66-1.96-12.66-15.67v-25.46l8.82,2.94c.77,.16,2.05,.33,3.45,.33,12.15,0,28.13-9.63,28.13-33.46,0-10.77-3.45-18.45-8.44-23.18Zm-22.63,49.79c-4.34,0-7.8-1.14-9.33-2.12V31.94c0-4.41,.39-6.37,1.41-7.51,.77-1.14,3.45-1.96,7.16-1.96,10.74,0,19.95,7.18,19.95,25.14,0,20.57-10.61,26.12-19.18,26.12Z" style="fill:#fff;"/><path d="M114.9,114.05c-2.3,0-4.47-2.29-4.47-9.79v-31.5c0-8.49-2.05-14.04-6.52-18.94-2.94-2.94-6.91-4.41-10.74-4.41-7.29,1.96-14.71,8-18.41,11.42-2.56,2.29-4.22,4.25-4.22,6.53,0,3.92,3.2,7.18,5.63,7.18,1.92,0,3.07-1.14,3.71-3.75,1.15-4.73,2.05-8.32,3.45-10.61,1.28-1.96,3.07-3.75,6.01-3.75,6.65,0,11.25,6.69,11.25,18.28v3.26c-2.81,2.94-12.4,7.18-20.21,10.61-7.03,3.1-10.49,8.32-10.49,16.32,0,10.45,6.52,20.08,15.6,20.08,3.96,0,10.23-6.04,15.35-10.45,.64,2.94,1.41,5.22,3.07,7.35,1.28,1.8,4.09,3.1,6.01,3.1l10.87-8.16-1.28-4.57c-1.41,.98-3.07,1.8-4.6,1.8Zm-14.32-4.9c-2.56,3.26-7.16,5.88-10.49,5.88-4.09,0-9.21-3.92-9.21-12.57,0-6.04,2.94-9.14,7.8-11.92,2.94-1.63,9.08-5.06,11.89-6.86v25.46Z" style="fill:#fff;"/><path d="M166.41,49.41c-6.39,0-11.76,8.98-16.24,17.47v-17.95c-6.01,3.43-11.76,5.38-18.03,6.69v4.08c7.42,1.14,7.93,1.63,7.93,12.41v33.95c0,10.61-.77,11.42-8.82,12.41v4.57h29.41v-4.57c-9.85-.98-10.49-1.8-10.49-12.57v-30.69c2.81-8.32,7.54-13.38,10.23-13.38,2.3,0,3.83,1.63,5.75,4.08,1.03,1.14,2.05,1.31,3.33,.33,2.3-1.63,4.34-5.22,4.34-8.98,0-4.08-2.68-7.84-7.42-7.84Z" style="fill:#fff;"/><path d="M211.02,115.52c-3.32,0-7.42-2.45-7.42-15.67V58.06h13.81c1.54-1.47,1.92-5.06,.77-6.69h-14.58c0-7.84,.13-17.3,.39-24.16l-1.92-.33c-2.43,3.26-6.14,7.51-8.57,10.77v13.71h-5.88l-3.45,4.73,.51,1.96h8.82v47.5c0,13.06,4.35,19.42,12.53,19.42,1.28,0,3.32-.65,5.5-2.12l8.44-5.71-1.15-4.24c-1.79,1.14-4.73,2.61-7.8,2.61Z" style="fill:#fff;"/><path d="M265.86,55.77c7.41,1.31,8.31,3.1,6.77,9.3-2.68,10.28-7.8,28.4-11.38,39.67l-12.4-40.15c-1.66-6.04-1.03-7.67,4.86-8.82v-4.41h-25.83v4.41c7.03,1.14,8.18,3.1,11,12.08,3.84,11.75,10.74,31.83,15.73,50.44,.77,2.78,.77,4.25,.26,6.69-.64,2.12-2.55,7.84-5.24,14.69-1.54,4.08-4.47,8-8.57,12.08-1.92,2.12-2.81,3.59-2.81,5.71,0,4.08,3.71,7.84,7.8,7.84,1.66,0,3.07-.82,3.83-4.24,2.05-8.49,4.35-18.61,12.66-44.73,8.82-28.4,12.28-39.5,15.47-48.64,3.2-9.3,4.6-10.61,11.26-11.92v-4.41h-23.4v4.41Z" style="fill:#fff;"/><path d="M519.6,78.46c12.28,1.14,13.3,2.45,13.3,14.36v13.39c0,6.69-1.66,8.49-4.35,10.45-2.55,1.63-6.52,2.77-10.87,2.77-24.81,0-35.29-25.79-35.29-51.74,0-29.87,12.66-47.01,32.22-47.01,3.71,0,8.95,.81,11.89,2.12,8.05,3.43,11.76,9.3,14.83,23.18l3.84-.98c-1.03-10.28-1.67-20.24-1.92-26.28-3.96-.82-13.55-4.08-26.59-4.08-25.58,0-47.57,20.57-47.57,55.01s17.65,55.82,46.67,55.82c10.74,0,21.1-3.59,29.03-5.88-.64-4.41-.77-9.79-.77-15.51v-13.71c0-9.63,.51-10.61,8.44-11.92v-4.73h-32.86v4.73Z" style="fill:#fff;"/><path d="M605.12,74.7c0-13.06-8.44-25.3-19.56-25.3-6.65,0-13.68,4.24-19.05,11.92-5.24,7.18-8.31,17.47-8.31,28.57,0,18.77,9.46,35.09,25.06,35.09,4.09,0,13.04-2.78,21.23-15.83l-2.05-3.75c-4.73,5.55-9.59,8.32-14.83,8.32-9.08,0-19.56-8.98-19.18-30.85,15.22-.65,31.58-2.12,34.14-2.77,2.04-.65,2.43-2.12,2.55-5.39Zm-14.19,.65c-7.54,.49-14.71,.49-21.87,.49,1.79-13.22,7.55-20.24,13.43-20.24,7.16,0,11.63,7.84,11.51,16.49,0,2.45-.77,3.26-3.07,3.26Z" style="fill:#fff;"/><path d="M635.55,115.51c-3.32,0-7.42-2.45-7.42-15.67V58.05h13.81c1.54-1.47,1.92-5.06,.77-6.69h-14.58c0-7.84,.13-17.3,.38-24.16l-1.92-.33c-2.43,3.26-6.14,7.51-8.57,10.77v13.71h-5.88l-3.45,4.73,.51,1.96h8.82v47.5c0,13.06,4.35,19.42,12.53,19.42,1.28,0,3.32-.65,5.5-2.12l8.44-5.71-1.15-4.25c-1.79,1.14-4.73,2.61-7.8,2.61Z" style="fill:#fff;"/><path d="M706.12,106.04v-28.73c0-19.59-7.29-27.91-17.77-27.91-6.91,0-13.94,6.04-18.54,11.92V5.66c-4.6,2.28-12.27,4.73-19.05,5.55v4.25c8.57,.98,8.95,3.1,8.95,11.75V105.88c0,10.94-1.66,11.75-9.08,12.57v4.57h27.88v-4.57c-7.67-.98-8.7-1.96-8.7-12.57v-38.52c3.58-5.39,8.7-8.49,13.55-8.49,8.57-.16,12.66,6.69,12.66,20.24v26.77c0,10.77-1.03,11.59-8.44,12.57v4.57h26.98v-4.57c-7.42-.82-8.44-1.63-8.44-12.41Z" style="fill:#fff;"/><path d="M763.78,74.7c0-13.06-8.44-25.3-19.56-25.3-6.65,0-13.68,4.24-19.05,11.92-5.24,7.18-8.31,17.47-8.31,28.57,0,18.77,9.46,35.09,25.06,35.09,4.09,0,13.04-2.78,21.23-15.83l-2.05-3.75c-4.73,5.55-9.59,8.32-14.83,8.32-9.08,0-19.57-8.98-19.18-30.85,15.22-.65,31.58-2.12,34.14-2.77,2.04-.65,2.43-2.12,2.55-5.39Zm-14.19,.65c-7.54,.49-14.71,.49-21.87,.49,1.79-13.22,7.55-20.24,13.43-20.24,7.16,0,11.63,7.84,11.51,16.49,0,2.45-.77,3.26-3.07,3.26Z" style="fill:#fff;"/><path d="M804.04,49.4c-6.39,0-11.76,8.98-16.24,17.47v-17.96c-6.01,3.43-11.76,5.39-18.03,6.69v4.08c7.42,1.14,7.93,1.63,7.93,12.41v33.95c0,10.61-.77,11.43-8.82,12.41v4.57h29.41v-4.57c-9.85-.98-10.49-1.79-10.49-12.57v-30.69c2.81-8.32,7.54-13.38,10.23-13.38,2.3,0,3.83,1.63,5.75,4.08,1.03,1.14,2.05,1.31,3.33,.33,2.3-1.63,4.35-5.22,4.35-8.98,0-4.08-2.68-7.84-7.42-7.84Z" style="fill:#fff;"/><path d="M445.2,132.07h-35.16c7.92-9.63,19.51-23.97,27.43-34.55,17.48-22.8,23.19-36.9,23.19-56.87,0-25.38-13.81-40.66-31.29-40.66-10.67,0-19.51,5.87-25.22,14.1l-10.49,19.03,4.23,4.93c4.79-9.16,12.7-21.85,25.4-21.85,13.44,0,21.54,11.28,21.54,30.79s-11.04,39.25-22.64,56.64c-9.02,13.39-20.06,27.26-30.19,39.95v5.64h69.4c1.84-8.7,4.97-20.68,7.36-31.26l-4.6-1.88c-6.26,14.81-9.02,15.98-18.96,15.98Z" style="fill:#fff;"/><path d="M333.09,47c0-19.51,8.1-30.79,21.54-30.79,12.7,0,20.62,12.69,25.4,21.85l4.23-4.93-10.49-19.03c-5.7-8.23-14.54-14.1-25.22-14.1-17.49,0-31.29,15.27-31.29,40.66,0,19.97,5.71,34.08,23.19,56.87,7.92,10.58,19.51,24.91,27.43,34.55h-35.16c-9.94,0-12.7-1.17-18.96-15.98l-4.6,1.88c2.39,10.58,5.52,22.56,7.36,31.26h69.4v-5.64c-10.13-12.69-21.17-26.56-30.19-39.95-11.6-17.39-22.64-36.19-22.64-56.64Z" style="fill:#fff;"/></g></g></svg>