<?xml version="1.0" encoding="UTF-8"?><svg id="b" xmlns="http://www.w3.org/2000/svg" viewBox="0 0 639.83 784.82"><g id="c"><g><g><path d="M535.02,67.89h-145.43c32.75,34.68,80.71,86.27,113.46,124.34,72.32,82.05,95.93,132.81,95.93,204.7,0,91.36-57.11,146.33-129.45,146.33-44.15,0-80.71-21.14-104.31-50.75l-43.4-68.51,17.51-17.76c19.8,32.99,52.53,78.66,105.07,78.66,55.59,0,89.09-40.6,89.09-110.81s-45.69-141.26-93.65-203.85c-37.31-48.21-83-98.12-124.88-143.8V6.13h287.06c7.61,31.3,20.56,74.44,30.45,112.5l-19.03,6.77c-25.89-53.29-37.31-57.52-78.43-57.52Z"/><path d="M469.54,549.39c-42.47,0-82.23-19.34-109.1-53.06l-.38-.54-46.33-72.79,12-62,18.88,42.08c40.71,67.84,76.46,75.68,99.81,75.68,25.83,0,46.22-9.02,60.62-26.8,14.61-18.04,22.33-44.97,22.33-77.88,0-73.41-47.69-141.79-92.39-200.12-37.59-48.58-83.78-98.95-124.54-143.38l-1.61-1.76V0h298.02l1.14,4.68c4.19,17.22,9.95,37.89,16.06,59.77,4.88,17.5,9.93,35.59,14.37,52.65l1.41,5.44-29.5,10.49-2.4-4.94c-25.3-52.08-35.17-54.07-72.92-54.07h-131.22c28.5,30.32,72.43,77.62,103.9,114.21,72.82,82.62,97.42,135.3,97.42,208.7,0,45.31-13.57,83.9-39.23,111.59-24.43,26.36-58.64,40.87-96.35,40.87Zm-99.3-60.45c24.53,30.63,60.7,48.18,99.3,48.18,34.25,0,65.27-13.12,87.35-36.94,23.53-25.39,35.96-61.09,35.96-103.26,0-36.4-6.25-65.99-20.27-95.94-14.21-30.37-37.07-62.66-74.13-104.7-35.22-40.94-86.11-95.38-113.32-124.18l-9.77-10.34h159.66c19.3,0,35.12,.73,48.4,9.85,11.04,7.59,20.23,20.32,33.12,46.19l8.58-3.05c-4.05-15.34-8.53-31.41-12.89-47-5.6-20.04-10.91-39.07-15.01-55.48H321.1v11.78c40.52,44.18,86.17,94.07,123.6,142.43,45.94,59.95,94.93,130.36,94.93,207.61,0,73.23-35.6,116.95-95.22,116.95-51.52,0-84.9-40.92-106.21-74.91l-8.59,8.71,40.62,64.11Z"/></g><g><path d="M106.33,410.74c0-70.21,33.5-110.81,89.09-110.81,52.54,0,85.28,45.68,105.07,78.66l17.51-17.76-43.4-68.51c-23.59-29.61-60.15-50.75-104.31-50.75-72.34,0-129.45,54.98-129.45,146.33,0,71.89,23.61,122.65,95.93,204.7,32.75,38.07,80.71,89.66,113.46,124.34H104.81c-41.12,0-52.54-4.23-78.43-57.52l-19.03,6.77c9.89,38.07,22.84,81.2,30.45,112.5H324.86v-20.3c-41.89-45.68-87.57-95.59-124.88-143.8-47.96-62.59-93.65-130.26-93.65-203.85Z"/><path d="M331,784.82H32.98l-1.14-4.68c-4.19-17.22-9.96-37.89-16.06-59.77-4.88-17.49-9.93-35.58-14.36-52.64l-1.41-5.44,29.5-10.49,2.4,4.94c25.3,52.08,35.17,54.07,72.92,54.07H236.04c-28.5-30.31-72.42-77.61-103.9-114.21-72.82-82.62-97.42-135.3-97.42-208.7,0-45.31,13.57-83.9,39.23-111.59,24.43-26.36,58.64-40.87,96.35-40.87,42.47,0,82.23,19.34,109.1,53.06l.38,.54,46.01,72.63-11.07,62.33-19.49-42.26c-40.71-67.84-76.46-75.68-99.81-75.68-25.83,0-46.22,9.02-60.62,26.8-14.61,18.04-22.33,44.97-22.33,77.88,0,73.41,47.69,141.79,92.39,200.12,37.59,48.58,83.78,98.94,124.54,143.38l1.61,1.76v28.82Zm-288.39-12.27H318.73v-11.78c-40.52-44.18-86.17-94.07-123.6-142.43-45.94-59.95-94.93-130.36-94.93-207.61,0-73.23,35.6-116.95,95.22-116.95,51.52,0,84.9,40.92,106.21,74.91l8.59-8.71-40.62-64.11c-24.53-30.63-60.7-48.18-99.3-48.18-34.25,0-65.28,13.12-87.35,36.94-23.53,25.39-35.96,61.09-35.96,103.26,0,36.4,6.25,65.99,20.27,95.94,14.21,30.37,37.07,62.66,74.13,104.7,35.24,40.96,86.12,95.38,113.32,124.18l9.77,10.34H104.81c-19.3,0-35.12-.73-48.4-9.85-11.04-7.59-20.23-20.32-33.12-46.19l-8.58,3.05c4.05,15.34,8.53,31.4,12.88,46.99,5.6,20.05,10.91,39.08,15.01,55.49Z"/></g></g></g></svg>