<?xml version="1.0" encoding="UTF-8"?><svg id="b" xmlns="http://www.w3.org/2000/svg" viewBox="0 0 403.99 2143.49"><g id="c"><g><path d="M151.28,1992.05H86.78c-9.39,0-13.78,4.66-13.78,14.56v20.39c0,9.9,4.38,14.56,13.78,14.56h230.43c9.39,0,13.78-4.66,13.78-14.56v-20.39c0-9.9-4.38-14.56-13.78-14.56h-61.99v-101.93h70.13c46.96,0,77.64,23.3,77.64,85.62v82.13c0,62.32-30.68,85.62-77.64,85.62H78.64c-46.96,0-77.64-23.3-77.64-85.62v-82.13c0-62.32,30.68-85.62,77.64-85.62h72.63v101.93Z" style="fill:#fff;"/><path d="M342.88,1661.79v89.7l60.11,12.23v100.19L1,1767.8v-124.07l401.99-96.11v102.52l-60.11,11.65Zm-77.64,15.73l-144.64,28.54,144.64,29.71v-58.25Z" style="fill:#fff;"/><path d="M324.72,1294.82h78.27v217.85H1v-101.93H324.72v-115.91Z" style="fill:none; stroke:#fff; stroke-miterlimit:10; stroke-width:2px;"/><path d="M324.72,1042.04h78.27v217.85H1v-101.93H324.72v-115.91Z" style="fill:#fff;"/><path d="M1,905.16H402.99v101.93H1v-101.93Z" style="fill:none; stroke:#fff; stroke-miterlimit:10; stroke-width:2px;"/><path d="M1,676.83c0-62.32,30.68-85.62,77.64-85.62h246.71c46.96,0,77.64,23.3,77.64,85.62v86.21c0,62.32-30.68,85.62-77.64,85.62H78.64c-46.96,0-77.64-23.3-77.64-85.62v-86.21Zm92.05,16.31c-9.39,0-13.78,4.66-13.78,14.56v24.46c0,9.9,4.38,14.56,13.78,14.56h217.9c9.39,0,13.78-4.66,13.78-14.56v-24.46c0-9.9-4.38-14.56-13.78-14.56H93.05Z" style="fill:#fff;"/><path d="M1,361.72c0-62.32,30.68-85.62,77.64-85.62h115.21c46.96,0,77.64,23.3,77.64,85.62v71.06h131.49v101.93H1v-172.99Zm92.05,16.31c-9.39,0-13.78,4.66-13.78,14.56v40.19h113.96v-40.19c0-9.9-4.38-14.56-13.78-14.56H93.05Z" style="fill:none; stroke:#fff; stroke-miterlimit:10; stroke-width:2px;"/><path d="M324.72,0h78.27V229.49H1V5.24H79.27V127.56h82.03V22.13h78.27V127.56h85.16V0Z" style="fill:#fff;"/></g></g></svg>