<?xml version="1.0" encoding="UTF-8"?><svg id="b" xmlns="http://www.w3.org/2000/svg" viewBox="0 0 509.17 781.64"><g id="c"><g><g><path d="M451.69,63.51c-.29,0-.57-.08-.83-.25L370.03,9.5H18.51c-.83,0-1.5-.67-1.5-1.5s.67-1.5,1.5-1.5H370.48c.3,0,.58,.09,.83,.25l81.21,54.01c.69,.46,.88,1.39,.42,2.08-.29,.43-.76,.67-1.25,.67Z"/><circle cx="451.69" cy="62.01" r="8"/><circle cx="18.51" cy="8" r="8"/></g><g><path d="M237.37,775.14H8c-.83,0-1.5-.67-1.5-1.5s.67-1.5,1.5-1.5H236.89l266.22-187.23c.68-.48,1.61-.31,2.09,.36,.48,.68,.31,1.61-.36,2.09l-266.61,187.5c-.25,.18-.55,.27-.86,.27Z"/><circle cx="501.17" cy="588.3" r="8"/><circle cx="8" cy="773.64" r="8"/></g><g><path d="M387.71,399.51c-.28,0-.57-.08-.82-.25L159.14,250.13H18.51c-.83,0-1.5-.67-1.5-1.5s.67-1.5,1.5-1.5H159.58c.29,0,.58,.08,.82,.25l228.13,149.38c.69,.45,.89,1.38,.43,2.08-.29,.44-.77,.68-1.26,.68Z"/><circle cx="387.71" cy="398.53" r="8"/><circle cx="18.51" cy="248.63" r="8"/></g></g></g></svg>