<?xml version="1.0" encoding="UTF-8"?><svg id="b" xmlns="http://www.w3.org/2000/svg" viewBox="0 0 455.65 2159.17"><g id="c"><g><path d="M366.32,1954.37h88.33v204.8H1v-200.13H89.33v109.16h92.57v-94.08h88.33v94.08h96.1v-113.84Z" style="fill:#fff;"/><path d="M366.32,1720.98h88.33v194.41H1v-90.97H366.32v-103.44Z" style="fill:#fff;"/><path d="M1,1598.84H454.65v90.97H1v-90.97Z" style="fill:#fff;"/><path d="M89.33,1336.86l277,125.27v-121.63h88.33v216.76h-88.33l-277-125.27v118.52H1v-213.64H89.33Z" style="fill:#fff;"/><path d="M386.81,1135.71v80.05l67.83,10.92v89.41L1,1230.31v-110.72l453.65-85.77v91.49l-67.83,10.4Zm-87.62,14.03l-163.23,25.47,163.23,26.51v-51.98Z" style="fill:#fff;"/><path d="M1,849.82c0-55.62,34.62-76.41,87.62-76.41h57.94c36.74,0,65.01,4.68,79.85,24.95,12.01-20.27,36.74-24.95,72.78-24.95h67.83c53,0,87.62,20.79,87.62,76.41v152.82H1v-152.82Zm96.81,13c-10.6,0-15.55,4.16-15.55,13v37.43h104.58v-37.43c0-8.84-4.95-13-15.55-13H97.81Zm185.84,0c-10.6,0-15.55,4.16-15.55,13v37.43h105.29v-37.43c0-8.84-4.95-13-15.55-13h-74.2Z" style="fill:none; stroke:#fff; stroke-miterlimit:10; stroke-width:2px;"/><path d="M366.32,519.23h88.33v204.8H1v-200.13H89.33v109.16h92.57v-94.08h88.33v94.08h96.1v-113.84Z" style="fill:none; stroke:#fff; stroke-miterlimit:10; stroke-width:2px;"/><path d="M89.33,279.09v64.46H454.65v90.97H89.33v63.94H1v-219.36H89.33Z" style="fill:none; stroke:#fff; stroke-miterlimit:10; stroke-width:2px;"/><path d="M1,1H454.65V90.41h-179.48v65.5h179.48v89.41H1v-89.41H186.84V90.41H1V1Z" style="fill:none; stroke:#fff; stroke-miterlimit:10; stroke-width:2px;"/></g></g></svg>