<?xml version="1.0" encoding="UTF-8"?><svg id="b" xmlns="http://www.w3.org/2000/svg" viewBox="0 0 1529.74 1006.61"><g id="c"><g><g><path d="M580.15,114.76c-.47,0-.93-.22-1.22-.63-.48-.67-.33-1.61,.35-2.09L726.55,6.78c.25-.18,.56-.28,.87-.28h752.15c.83,0,1.5,.67,1.5,1.5s-.67,1.5-1.5,1.5H727.9l-146.88,104.98c-.26,.19-.57,.28-.87,.28Z" style="fill:#fff;"/><circle cx="580.15" cy="113.26" r="8" style="fill:#fff;"/><circle cx="1479.58" cy="8" r="8" style="fill:#fff;"/></g><g><path d="M649.79,130.76c-.47,0-.93-.22-1.22-.63-.48-.67-.33-1.61,.35-2.09L796.19,22.78c.25-.18,.56-.28,.87-.28h663.99c.83,0,1.5,.67,1.5,1.5s-.67,1.5-1.5,1.5H797.54l-146.88,104.98c-.26,.19-.57,.28-.87,.28Z" style="fill:#fff;"/><circle cx="649.79" cy="129.26" r="8" style="fill:#fff;"/><circle cx="1461.05" cy="24" r="8" style="fill:#fff;"/></g><g><path d="M581.19,370.51c-.48,0-.96-.23-1.25-.66-.46-.69-.28-1.62,.41-2.08L1026.87,67.39c.25-.17,.54-.26,.84-.26h340.77c.83,0,1.5,.67,1.5,1.5s-.67,1.5-1.5,1.5h-340.31l-446.13,300.12c-.26,.17-.55,.26-.84,.26Z" style="fill:#fff;"/><circle cx="581.19" cy="369.01" r="8" style="fill:#fff;"/><circle cx="1368.47" cy="68.63" r="8" style="fill:#fff;"/></g><g><path d="M612.73,552.13c-.47,0-.93-.22-1.22-.63-.48-.68-.32-1.61,.35-2.09l140.12-99.47c.25-.18,.56-.28,.87-.28h762.17c.83,0,1.5,.67,1.5,1.5s-.67,1.5-1.5,1.5H753.33l-139.73,99.19c-.26,.19-.57,.28-.87,.28Z" style="fill:#fff;"/><circle cx="610.4" cy="552.42" r="9.2" style="fill:#fff;"/><circle cx="1515.02" cy="451.16" r="8" style="fill:#fff;"/></g><g><path d="M559.53,539.72c-.48,0-.94-.23-1.23-.65-.47-.68-.3-1.62,.38-2.09L1136.16,137.4c.25-.17,.55-.27,.85-.27h384.73c.83,0,1.5,.67,1.5,1.5s-.67,1.5-1.5,1.5h-384.27l-577.09,399.32c-.26,.18-.56,.27-.85,.27Z" style="fill:#fff;"/><circle cx="559.53" cy="538.22" r="8" style="fill:#fff;"/><circle cx="1521.74" cy="138.64" r="8" style="fill:#fff;"/></g><g><path d="M237.37,819.77H8c-.83,0-1.5-.67-1.5-1.5s.67-1.5,1.5-1.5H236.89l266.22-187.23c.68-.48,1.61-.31,2.09,.36,.48,.68,.31,1.61-.36,2.09l-266.61,187.5c-.25,.18-.55,.27-.86,.27Z"/><circle cx="501.17" cy="632.93" r="8"/><circle cx="8" cy="818.27" r="8"/></g><g><path d="M425.06,1000.11H73.09c-.83,0-1.5-.67-1.5-1.5s.67-1.5,1.5-1.5H424.6l80.83-53.76c.69-.46,1.62-.27,2.08,.42,.46,.69,.27,1.62-.42,2.08l-81.21,54.01c-.25,.16-.54,.25-.83,.25Z"/><circle cx="506.27" cy="944.6" r="8"/><circle cx="73.09" cy="998.61" r="8"/></g><g><path d="M506.4,108.14c-.29,0-.57-.08-.83-.25l-80.83-53.76H73.22c-.83,0-1.5-.67-1.5-1.5s.67-1.5,1.5-1.5H425.19c.3,0,.58,.09,.83,.25l81.21,54.01c.69,.46,.88,1.39,.42,2.08-.29,.43-.77,.67-1.25,.67Z"/><circle cx="506.4" cy="106.64" r="8"/><circle cx="73.22" cy="52.63" r="8"/></g><g><path d="M495.2,444.14c-.28,0-.57-.08-.82-.25l-227.75-149.14H18.51c-.83,0-1.5-.67-1.5-1.5s.67-1.5,1.5-1.5h248.57c.29,0,.58,.09,.82,.25l228.13,149.38c.69,.45,.89,1.38,.43,2.08-.29,.44-.77,.68-1.26,.68Z"/><circle cx="495.2" cy="443.16" r="8"/><circle cx="18.51" cy="293.26" r="8"/></g></g></g></svg>