<?xml version="1.0" encoding="UTF-8"?><svg id="b" xmlns="http://www.w3.org/2000/svg" viewBox="0 0 1732.51 1073.26"><g id="c"><g><g><path d="M627.61,220.16c-.47,0-.93-.22-1.22-.63-.48-.67-.33-1.61,.35-2.09L921.48,6.78c.25-.18,.56-.28,.87-.28h802.15c.83,0,1.5,.67,1.5,1.5s-.67,1.5-1.5,1.5H922.83l-294.35,210.38c-.26,.19-.57,.28-.87,.28Z" style="fill:#fff;"/><circle cx="628.07" cy="217.27" r="8" style="fill:#fff;"/><circle cx="1724.51" cy="8" r="8" style="fill:#fff;"/></g><g><path d="M601.55,463.29c-.48,0-.95-.23-1.24-.66-.47-.69-.29-1.62,.4-2.08L1187,61.86c.25-.17,.54-.26,.84-.26h501.54c.83,0,1.5,.67,1.5,1.5s-.67,1.5-1.5,1.5h-501.08L602.39,463.03c-.26,.18-.55,.26-.84,.26Z" style="fill:#fff;"/><circle cx="601.55" cy="461.79" r="8" style="fill:#fff;"/><circle cx="1689.38" cy="63.1" r="8" style="fill:#fff;"/></g><g><path d="M571.89,669.95c-.48,0-.95-.23-1.24-.65-.47-.68-.3-1.62,.38-2.09l498.02-342.94c.25-.17,.55-.26,.85-.26h611.47c.83,0,1.5,.67,1.5,1.5s-.67,1.5-1.5,1.5h-611.01l-497.64,342.68c-.26,.18-.56,.26-.85,.26Z" style="fill:#fff;"/><circle cx="571.89" cy="668.45" r="8" style="fill:#fff;"/><circle cx="1681.38" cy="325.5" r="8" transform="translate(3.42 668.21) rotate(-22.5)" style="fill:#fff;"/></g><g><path d="M431.29,608.79c-.48,0-.95-.23-1.24-.65-.47-.68-.3-1.62,.39-2.09L1198.75,77.86c.25-.17,.55-.26,.85-.26h374.64c.83,0,1.5,.67,1.5,1.5s-.67,1.5-1.5,1.5h-374.17L432.14,608.53c-.26,.18-.56,.26-.85,.26Z" style="fill:#fff;"/><circle cx="431.29" cy="607.29" r="8" style="fill:#fff;"/><circle cx="1574.24" cy="79.1" r="8" style="fill:#fff;"/></g><g><path d="M237.37,886.43H8c-.83,0-1.5-.67-1.5-1.5s.67-1.5,1.5-1.5H236.89l266.22-187.23c.68-.48,1.61-.31,2.09,.36,.48,.68,.31,1.61-.36,2.09l-266.61,187.5c-.25,.18-.55,.27-.86,.27Z"/><circle cx="501.17" cy="699.59" r="8"/><circle cx="8" cy="884.92" r="8"/></g><g><path d="M425.06,1066.76H73.09c-.83,0-1.5-.67-1.5-1.5s.67-1.5,1.5-1.5H424.6l80.83-53.76c.69-.46,1.62-.27,2.08,.42,.46,.69,.27,1.62-.42,2.08l-81.21,54.01c-.25,.16-.54,.25-.83,.25Z"/><circle cx="506.27" cy="1011.25" r="8"/><circle cx="73.09" cy="1065.26" r="8"/></g><g><path d="M456.4,174.79c-.29,0-.57-.08-.83-.25l-80.83-53.76H73.22c-.83,0-1.5-.67-1.5-1.5s.67-1.5,1.5-1.5H375.19c.3,0,.58,.09,.83,.25l81.21,54.01c.69,.46,.88,1.39,.42,2.08-.29,.43-.76,.67-1.25,.67Z"/><circle cx="456.4" cy="173.29" r="8"/><circle cx="73.22" cy="119.28" r="8"/></g><g><path d="M495.2,510.79c-.28,0-.57-.08-.82-.25l-227.75-149.14H18.51c-.83,0-1.5-.67-1.5-1.5s.67-1.5,1.5-1.5h248.57c.29,0,.58,.09,.82,.25l228.13,149.38c.69,.45,.89,1.38,.43,2.08-.29,.44-.77,.68-1.26,.68Z"/><circle cx="495.2" cy="509.81" r="8"/><circle cx="18.51" cy="359.91" r="8"/></g></g></g></svg>