<?xml version="1.0" encoding="UTF-8"?><svg id="b" xmlns="http://www.w3.org/2000/svg" viewBox="0 0 686.09 2122.6"><g id="c"><g><g><path d="M161.47,554.98v28.65c0,3.83,.94,6.93,2.81,9.29,1.87,2.37,4.61,3.55,8.27,3.55,3.39,0,6.07-1.04,8.04-3.11,1.95-2.08,2.93-5.22,2.93-9.42v-28.96h14.65v29.36c0,8.24-2.26,14.6-6.81,19.07-4.55,4.47-10.82,6.7-18.8,6.7s-14.35-2.29-18.89-6.86c-4.55-4.57-6.83-10.77-6.83-18.59v-29.68h14.64Z" style="fill:#fff;"/><path d="M222.51,554.98l25.28,30.32v-30.32h14.5v54.42h-13.07l-25.2-30.32v30.32h-14.5v-54.42h13Z" style="fill:#fff;"/><path d="M295.68,554.98c9,0,15.98,2.45,20.93,7.34,4.96,4.89,7.43,11.52,7.43,19.86s-2.22,15.38-6.67,20.11c-4.46,4.73-11.38,7.1-20.76,7.1h-22.54v-54.42h21.61Zm-.57,43.16c4.83,0,8.37-1.3,10.63-3.91,2.24-2.61,3.38-6.52,3.38-11.73,0-5.53-1.25-9.68-3.74-12.45-2.48-2.77-5.98-4.15-10.48-4.15h-6.17v32.23h6.39Z" style="fill:#fff;"/><path d="M379.08,602.34c-5.01,5.18-11.68,7.78-20,7.78s-15.07-2.6-20.07-7.82c-5.01-5.21-7.51-11.92-7.51-20.11s2.45-14.69,7.37-19.98c4.9-5.29,11.69-7.94,20.35-7.94s14.92,2.59,19.89,7.78c4.98,5.18,7.47,11.9,7.47,20.14s-2.5,14.96-7.5,20.15Zm-29.23-10.01c2.28,2.55,5.35,3.83,9.24,3.83s6.99-1.29,9.22-3.87c2.22-2.58,3.33-5.94,3.33-10.09s-1.11-7.44-3.33-10.05c-2.23-2.61-5.33-3.91-9.3-3.91s-6.95,1.25-9.19,3.75c-2.25,2.5-3.38,5.91-3.38,10.21s1.13,7.58,3.41,10.13Z" style="fill:#fff;"/><path d="M409.2,554.98l25.28,30.32v-30.32h14.5v54.42h-13.07l-25.2-30.32v30.32h-14.5v-54.42h13Z" style="fill:#fff;"/><path d="M496.8,554.98v10.93h-21.39v9.97h20.39v10.93h-20.39v11.65h21.97v10.93h-36.62v-54.42h36.04Z" style="fill:#fff;"/></g><path d="M315.36,635.21l10.77,13.57,10.55-13.57h6.23l-13.71,17.63,14.44,18.19h-6.32l-11.2-14.04-10.85,14.04h-6.18l13.93-18.11-13.86-17.71h6.18Z" style="fill:#fff;"/><g><path d="M292.51,768.34c2.47,0,4.8,.97,6.55,2.72l.46,.46,2.48-2.48-.46-.46c-2.42-2.42-5.63-3.75-9.04-3.75-7.05,0-12.79,5.74-12.79,12.79s5.74,12.79,12.79,12.79c3.41,0,6.62-1.33,9.04-3.75l.46-.46-2.48-2.48-.46,.46c-1.75,1.75-4.08,2.72-6.55,2.72-4.49,0-8.28-3.18-9.11-7.52h15.28v-3.51h-15.28c.83-4.33,4.62-7.52,9.11-7.52Z" style="fill:#fff;"/><polygon points="452.56 775.85 439.53 775.85 439.53 764.82 436.02 764.82 436.02 790.4 439.53 790.4 439.53 779.37 452.56 779.37 452.56 790.4 456.08 790.4 456.08 764.82 452.56 764.82 452.56 775.85" style="fill:#fff;"/><path d="M421.74,775.85h-9.93c-2.07,0-3.76-1.69-3.76-3.76s1.69-3.76,3.76-3.76h13.34v-3.51h-13.34c-4.01,0-7.27,3.26-7.27,7.27s3.26,7.27,7.27,7.27h9.93c2.07,0,3.76,1.69,3.76,3.76s-1.69,3.76-3.76,3.76h-17.2v3.52h17.2c4.01,0,7.27-3.27,7.27-7.28s-3.26-7.27-7.27-7.27Z" style="fill:#fff;"/><path d="M371.06,783.13v-18.3h-3.51v18.3c0,4.01,3.26,7.27,7.27,7.27h11.67v-3.51h-11.67c-2.07,0-3.76-1.69-3.76-3.76Z" style="fill:#fff;"/><path d="M361.14,775.86h-13.33v3.51h9.76c-.83,4.33-4.62,7.52-9.11,7.52-5.11,0-9.27-4.16-9.27-9.27s4.16-9.27,9.27-9.27c2.47,0,4.8,.97,6.55,2.72l.46,.46,2.48-2.48-.46-.46c-2.42-2.42-5.63-3.75-9.04-3.75-7.05,0-12.79,5.74-12.79,12.79s5.74,12.79,12.79,12.79,12.79-5.74,12.79-12.79c0-.37-.02-.75-.06-1.16l-.05-.59Z" style="fill:#fff;"/><rect x="393.49" y="764.83" width="3.62" height="25.57" style="fill:#fff;"/><path d="M318.67,764.78c-5.53,0-10.03,4.5-10.03,10.03v15.6h3.51v-15.6c0-3.59,2.92-6.52,6.52-6.52s6.52,2.92,6.52,6.52v15.6h3.51v-15.6c0-5.53-4.5-10.03-10.03-10.03Z" style="fill:#fff;"/><path d="M375.73,743.42v-16.97c0-6.25-5.07-11.31-11.31-11.31h-11.31c-6.25,0-11.31,5.07-11.31,11.31v16.97c0,6.25,5.07,11.31,11.31,11.31h11.31c6.25,0,11.31-5.07,11.31-11.31Zm-11.31,0c0,3.12-2.53,5.66-5.66,5.66s-5.66-2.53-5.66-5.66v-16.97c0-3.12,2.53-5.66,5.66-5.66s5.66,2.53,5.66,5.66v16.97Z" style="fill:#fff;"/><path d="M446.17,715.32v28.1c0,3.12-2.53,5.66-5.66,5.66h-5.66v-33.94h-11.31v39.6h14.23c10.88,0,19.71-8.82,19.71-19.71v-19.89h-11.31v.18Z" style="fill:#fff;"/><rect x="403.83" y="715.14" width="11.31" height="39.6" style="fill:#fff;"/><path d="M260.03,715.14h-5.66c-3.12,0-5.66,2.53-5.66,5.66v-22.63h-11.31v56.57h11.31v-28.29c0-3.12,2.53-5.66,5.66-5.66s5.66,2.53,5.66,5.66v28.29h11.31v-28.29c0-6.25-5.07-11.31-11.31-11.31Z" style="fill:#fff;"/><path d="M487.09,737.76h11.31v-11.31c0-6.25-5.07-11.31-11.31-11.31h-11.31c-6.25,0-11.31,5.07-11.31,11.31v16.97c0,6.25,5.07,11.31,11.31,11.31h11.31c6.25,0,11.31-5.07,11.31-11.31h-5.66c0,3.12-2.53,5.66-5.66,5.66h-5.66c-3.12,0-5.66-2.53-5.66-5.66v-5.66h11.31Zm-11.31-11.31c0-3.12,2.53-5.66,5.66-5.66s5.66,2.53,5.66,5.66v5.66h-11.31v-5.66Z" style="fill:#fff;"/><rect x="322.07" y="698.16" width="11.31" height="56.57" style="fill:#fff;"/><rect x="384.12" y="698.16" width="11.31" height="56.57" style="fill:#fff;"/><path d="M313.68,743.42v-16.97c0-6.25-5.07-11.31-11.31-11.31h-11.31c-6.25,0-11.31,5.07-11.31,11.31v16.97c0,6.25,5.07,11.31,11.31,11.31h11.31c6.25,0,11.31-5.07,11.31-11.31Zm-11.31,0c0,3.12-2.53,5.66-5.66,5.66s-5.66-2.53-5.66-5.66v-16.97c0-3.12,2.53-5.66,5.66-5.66s5.66,2.53,5.66,5.66v16.97Z" style="fill:#fff;"/><rect x="403.83" y="703.82" width="11.31" height="5.66" style="fill:#fff;"/><path d="M223.26,731.46c-.02-.45-.08-.89-.18-1.34h0c-.02-.1-.01-.2-.04-.3,0-.02-.02-.04-.03-.06h0c-.15-.55-.39-1.07-.67-1.57-.08-.15-.19-.28-.28-.42-.25-.37-.53-.71-.86-1.04h0c-.13-.13-.25-.26-.39-.38h0c-.48-.41-1-.78-1.61-1.07l-31.17-14.63-31.17-14.63c-.61-.28-1.22-.47-1.84-.59-.2-.04-.4-.04-.6-.07-.3-.04-.6-.1-.89-.1-.12,0-.24,.03-.36,.04-.2,0-.39,.03-.59,.06-.41,.05-.8,.13-1.19,.25-.18,.05-.36,.1-.54,.16-.46,.17-.89,.38-1.31,.62-.08,.05-.17,.08-.25,.13-.48,.31-.93,.68-1.33,1.09-.11,.11-.21,.25-.31,.37-.28,.32-.54,.66-.76,1.02-.11,.17-.2,.34-.29,.52-.19,.37-.35,.76-.48,1.17-.06,.18-.13,.35-.17,.54-.15,.6-.24,1.22-.24,1.88h0v7.05h0v50.18h0v26.45c0,4.53,3.71,7.84,7.83,7.84,1.1,0,2.23-.24,3.33-.75l62.34-29.26c2.73-1.28,4.1-3.86,4.1-6.45v-19.4h0v-7.05h0c0-.1-.03-.19-.04-.28Zm-2.6,12.82c-.44,.36-.9,.7-1.46,.97l-62.34,29.26c-3.04,1.43-6.31,.68-8.53-1.3v-7.05c2.22,1.98,5.49,2.72,8.53,1.3l62.34-29.26c.56-.26,1.02-.61,1.46-.97v7.05Zm-2.58,17.98l-62.34,29.26c-.71,.33-1.45,.5-2.21,.5-2.5,0-5.2-1.99-5.2-5.21v-3.9c2.22,1.98,5.49,2.72,8.53,1.3l62.34-29.26c.56-.26,1.02-.61,1.46-.97v4.22c0,1.78-.96,3.3-2.58,4.06Z" style="fill:#fff;"/></g></g><g><path d="M461.5,1772.45h224.1v173.72h-221.96L.5,2121.88v-177.69l289.19-83.39L.5,1783.37v-176.7l461,165.78Z" style="fill:none; stroke:#fff; stroke-miterlimit:10;"/><path d="M.5,1038.85c0-106.22,52.29-145.93,132.32-145.93h420.45c80.03,0,132.32,39.71,132.32,145.93v146.92c0,106.22-52.29,145.93-132.32,145.93H132.82c-80.04,0-132.32-39.71-132.32-145.93v-146.92Zm156.87,27.79c-16.01,0-23.48,7.94-23.48,24.82v41.69c0,16.88,7.47,24.82,23.48,24.82h371.36c16.01,0,23.48-7.94,23.48-24.82v-41.69c0-16.88-7.47-24.82-23.48-24.82H157.37Z" style="fill:#fff; opacity:.2;"/><path d="M.5,.5H553.27c80.03,0,132.32,39.71,132.32,145.93v146.92c0,106.22-52.29,145.92-132.32,145.92H.5v-173.72H528.73c16.01,0,23.48-7.94,23.48-24.82v-41.69c0-16.88-7.47-24.82-23.48-24.82H.5V.5Z" style="fill:none; stroke:#fff; stroke-miterlimit:10;"/></g></g></svg>