<?xml version="1.0" encoding="UTF-8"?><svg id="b" xmlns="http://www.w3.org/2000/svg" viewBox="0 0 514.4 781.64"><g id="c"><g><g><path d="M237.37,775.14H8c-.83,0-1.5-.67-1.5-1.5s.67-1.5,1.5-1.5H236.89l266.22-187.23c.68-.48,1.61-.31,2.09,.36,.48,.68,.31,1.61-.36,2.09l-266.61,187.5c-.25,.18-.55,.27-.86,.27Z"/><circle cx="501.17" cy="588.3" r="8"/><circle cx="8" cy="773.64" r="8"/></g><g><path d="M506.4,63.51c-.29,0-.57-.08-.83-.25L424.74,9.5H73.22c-.83,0-1.5-.67-1.5-1.5s.67-1.5,1.5-1.5H425.19c.3,0,.58,.09,.83,.25l81.21,54.01c.69,.46,.88,1.39,.42,2.08-.29,.43-.77,.67-1.25,.67Z"/><circle cx="506.4" cy="62.01" r="8"/><circle cx="73.22" cy="8" r="8"/></g><g><path d="M421.51,354.08c-.29,0-.58-.08-.84-.26l-154.06-103.7H18.51c-.83,0-1.5-.67-1.5-1.5s.67-1.5,1.5-1.5h248.57c.3,0,.59,.09,.84,.26l154.44,103.95c.69,.46,.87,1.39,.41,2.08-.29,.43-.76,.66-1.25,.66Z"/><circle cx="421.52" cy="352.58" r="8"/><circle cx="18.51" cy="248.63" r="8"/></g></g></g></svg>