<?xml version="1.0" encoding="UTF-8"?><svg id="b" xmlns="http://www.w3.org/2000/svg" viewBox="0 0 1731.31 1011.66"><g id="c"><g><g><path d="M609.3,114.76c-.47,0-.93-.22-1.22-.63-.48-.67-.33-1.61,.35-2.09L755.7,6.78c.25-.18,.56-.28,.87-.28h724.12c.83,0,1.5,.67,1.5,1.5s-.67,1.5-1.5,1.5H757.06l-146.88,104.98c-.26,.19-.57,.28-.87,.28Z" style="fill:#fff;"/><circle cx="609.3" cy="113.26" r="8" style="fill:#fff;"/><circle cx="1480.7" cy="8" r="8" style="fill:#fff;"/></g><g><path d="M607.16,371.64c-.48,0-.95-.23-1.24-.65-.47-.68-.29-1.62,.39-2.09l318.8-218.46c.25-.17,.55-.26,.85-.26h103.78c.83,0,1.5,.67,1.5,1.5s-.67,1.5-1.5,1.5h-103.32l-318.42,218.19c-.26,.18-.55,.26-.85,.26Z" style="fill:#fff;"/><circle cx="607.16" cy="370.14" r="8" style="fill:#fff;"/><circle cx="1029.74" cy="151.69" r="8" style="fill:#fff;"/></g><g><path d="M692.55,554.22c-.47,0-.93-.22-1.22-.63-.48-.68-.32-1.61,.35-2.09l310.97-220.92c.25-.18,.56-.28,.87-.28h531.94c.83,0,1.5,.67,1.5,1.5s-.67,1.5-1.5,1.5H1004l-310.58,220.64c-.26,.19-.57,.28-.87,.28Z" style="fill:#fff;"/><circle cx="690.21" cy="554.51" r="9.2" transform="translate(32.3 1146.99) rotate(-80.78)" style="fill:#fff;"/><circle cx="1535.46" cy="331.8" r="8" style="fill:#fff;"/></g><g><path d="M559.53,595.77c-.47,0-.93-.22-1.23-.63-.48-.68-.32-1.61,.36-2.09L1194,142.46c.25-.18,.56-.28,.87-.28h351.39c.83,0,1.5,.67,1.5,1.5s-.67,1.5-1.5,1.5h-350.91l-634.94,450.31c-.26,.19-.57,.28-.87,.28Z" style="fill:#fff;"/><circle cx="559.53" cy="594.27" r="8" style="fill:#fff;"/><circle cx="1546.26" cy="143.69" r="8" style="fill:#fff;"/></g><g><path d="M566.76,951.15c-.45,0-.9-.2-1.19-.59-.5-.66-.38-1.6,.28-2.1l549.75-419.17c.26-.2,.58-.31,.91-.31h606.8c.83,0,1.5,.67,1.5,1.5s-.67,1.5-1.5,1.5h-606.3l-549.35,418.86c-.27,.21-.59,.31-.91,.31Z" style="fill:#fff;"/><circle cx="565.19" cy="949.65" r="8" style="fill:#fff;"/><circle cx="1723.31" cy="530.48" r="8" style="fill:#fff;"/></g><g><path d="M237.37,824.82H8c-.83,0-1.5-.67-1.5-1.5s.67-1.5,1.5-1.5H236.89l266.22-187.23c.68-.48,1.61-.31,2.09,.36,.48,.68,.31,1.61-.36,2.09l-266.61,187.5c-.25,.18-.55,.27-.86,.27Z"/><circle cx="501.17" cy="637.98" r="8"/><circle cx="8" cy="823.32" r="8"/></g><g><path d="M425.06,1005.16H73.09c-.83,0-1.5-.67-1.5-1.5s.67-1.5,1.5-1.5H424.6l80.83-53.76c.69-.46,1.62-.27,2.08,.42,.46,.69,.27,1.62-.42,2.08l-81.21,54.01c-.25,.16-.54,.25-.83,.25Z"/><circle cx="506.27" cy="949.65" r="8"/><circle cx="73.09" cy="1003.66" r="8"/></g><g><path d="M506.4,113.19c-.29,0-.57-.08-.83-.25l-80.83-53.76H73.22c-.83,0-1.5-.67-1.5-1.5s.67-1.5,1.5-1.5H425.19c.3,0,.58,.09,.83,.25l81.21,54.01c.69,.46,.88,1.39,.42,2.08-.29,.43-.77,.67-1.25,.67Z"/><circle cx="506.4" cy="111.69" r="8"/><circle cx="73.22" cy="57.68" r="8"/></g><g><path d="M495.2,449.19c-.28,0-.57-.08-.82-.25l-227.75-149.14H18.51c-.83,0-1.5-.67-1.5-1.5s.67-1.5,1.5-1.5h248.57c.29,0,.58,.09,.82,.25l228.13,149.38c.69,.45,.89,1.38,.43,2.08-.29,.44-.77,.68-1.26,.68Z"/><circle cx="495.2" cy="448.21" r="8"/><circle cx="18.51" cy="298.31" r="8"/></g></g></g></svg>