<?xml version="1.0" encoding="UTF-8"?><svg id="b" xmlns="http://www.w3.org/2000/svg" viewBox="0 0 401.54 2152.66"><g id="c"><g><path d="M78.81,2075.52h97.07v-80.23h71.56v80.23h153.07v77.15H1.03v-169.72H78.81v92.57Z" style="fill:#fff;"/><path d="M1.03,1737.41H323.35c46.67,0,77.16,17.63,77.16,64.8v65.24c0,47.17-30.49,64.8-77.16,64.8H1.03v-77.14H309.04c9.33,0,13.69-3.53,13.69-11.02v-18.51c0-7.49-4.36-11.02-13.69-11.02H1.03v-77.15Z" style="fill:none; stroke:#fff; stroke-miterlimit:10; stroke-width:2.06px;"/><path d="M1.03,1329.21l399.48,59.95v88.61l-238.32,31.3,238.32,31.3v88.61L1.03,1688.93v-80.23l268.81-23.8L1.03,1546.98v-75.38l268.81-37.91L1.03,1405.48v-76.26Z" style="fill:#fff;"/><path d="M340.77,1145.39v67.89l59.74,9.26v75.82L1.03,1225.62v-93.9l399.48-72.74v77.59l-59.74,8.82Zm-77.16,11.9l-143.74,21.6,143.74,22.48v-44.08Z" style="fill:none; stroke:#fff; stroke-miterlimit:10; stroke-width:2.06px;"/><path d="M314.02,911.32l-166.14,34.83h252.63v68.77H1.03v-84.2l213.43-45.85L1.03,839.02v-84.2H400.51v68.33H146.63l167.38,35.27v52.9Z" style="fill:#fff;"/><path d="M1.03,564.39c0-47.17,30.49-64.8,77.16-64.8h245.16c46.67,0,77.16,17.63,77.16,64.8v65.24c0,47.17-30.49,64.8-77.16,64.8H78.19c-46.67,0-77.16-17.63-77.16-64.8v-65.24Zm91.47,12.34c-9.33,0-13.69,3.53-13.69,11.02v18.51c0,7.49,4.36,11.02,13.69,11.02h216.54c9.33,0,13.69-3.53,13.69-11.02v-18.51c0-7.49-4.36-11.02-13.69-11.02H92.5Z" style="fill:none; stroke:#fff; stroke-miterlimit:10; stroke-width:2.06px;"/><path d="M150.37,326.79H86.28c-9.33,0-13.69,3.53-13.69,11.02v15.43c0,7.49,4.36,11.02,13.69,11.02h228.98c9.33,0,13.69-3.53,13.69-11.02v-15.43c0-7.49-4.36-11.02-13.69-11.02h-61.6v-77.14h69.69c46.67,0,77.16,17.63,77.16,64.8v62.16c0,47.17-30.49,64.8-77.16,64.8H78.19c-46.67,0-77.16-17.63-77.16-64.8v-62.16c0-47.17,30.49-64.8,77.16-64.8h72.18v77.14Z" style="fill:#fff;"/><path d="M1.03,65.83C1.03,18.66,31.52,1.03,78.19,1.03h245.16c46.67,0,77.16,17.63,77.16,64.8v65.24c0,47.17-30.49,64.8-77.16,64.8H78.19C31.52,195.87,1.03,178.24,1.03,131.07V65.83Zm91.47,12.34c-9.33,0-13.69,3.53-13.69,11.02v18.51c0,7.49,4.36,11.02,13.69,11.02h216.54c9.33,0,13.69-3.53,13.69-11.02v-18.51c0-7.49-4.36-11.02-13.69-11.02H92.5Z" style="fill:none; stroke:#fff; stroke-miterlimit:10; stroke-width:2.06px;"/></g></g></svg>