<?xml version="1.0" encoding="UTF-8"?><svg id="b" xmlns="http://www.w3.org/2000/svg" viewBox="0 0 1519.83 1114.79"><g id="c"><g><g><path d="M618,220.16c-.47,0-.93-.22-1.22-.63-.48-.67-.33-1.61,.35-2.09L911.87,6.78c.25-.18,.56-.28,.87-.28h559.78c.83,0,1.5,.67,1.5,1.5s-.67,1.5-1.5,1.5H913.22l-294.35,210.38c-.26,.19-.57,.28-.87,.28Z" style="fill:#fff;"/><circle cx="618.46" cy="217.27" r="8" style="fill:#fff;"/><circle cx="1472.52" cy="8" r="8" style="fill:#fff;"/></g><g><path d="M581.37,451.64c-.48,0-.95-.23-1.24-.66-.47-.69-.29-1.62,.4-2.08L1166.82,50.22c.25-.17,.54-.26,.84-.26h344.18c.83,0,1.5,.67,1.5,1.5s-.67,1.5-1.5,1.5h-343.71L582.21,451.38c-.26,.18-.55,.26-.84,.26Z" style="fill:#fff;"/><circle cx="581.37" cy="450.14" r="8" style="fill:#fff;"/><circle cx="1511.83" cy="51.46" r="8" style="fill:#fff;"/></g><g><path d="M573.37,713.93c-.48,0-.96-.23-1.25-.67-.46-.69-.27-1.61,.42-2.07l606.78-404.37c.25-.16,.53-.25,.83-.25h280.84c.83,0,1.49,.67,1.49,1.49s-.67,1.49-1.49,1.49h-280.38l-606.4,404.11c-.25,.17-.54,.25-.83,.25Z" style="fill:#fff;"/><ellipse cx="573.37" cy="712.43" rx="7.94" ry="8" style="fill:#fff;"/><ellipse cx="1460.98" cy="308.07" rx="7.94" ry="8" style="fill:#fff;"/></g><g><path d="M695.38,600.05c-.48,0-.95-.23-1.24-.66-.46-.69-.28-1.61,.41-2.07l505.34-339.75c.25-.17,.54-.25,.83-.25h280.84c.83,0,1.5,.67,1.5,1.49s-.67,1.49-1.5,1.49h-280.38l-504.96,339.5c-.26,.17-.55,.25-.83,.25Z" style="fill:#fff;"/><ellipse cx="695.38" cy="598.56" rx="7.94" ry="8" style="fill:#fff;"/><ellipse cx="1481.55" cy="258.8" rx="7.94" ry="8" style="fill:#fff;"/></g><g><path d="M650.37,597.48c-.47,0-.94-.23-1.23-.65-.47-.68-.3-1.61,.38-2.08L1338.34,120.1c.25-.17,.54-.26,.85-.26h100.13c.83,0,1.5,.67,1.5,1.49s-.67,1.49-1.5,1.49h-99.67l-688.44,474.39c-.26,.18-.55,.26-.85,.26Z" style="fill:#fff;"/><ellipse cx="650.36" cy="595.98" rx="7.94" ry="8" style="fill:#fff;"/><ellipse cx="1439.31" cy="121.33" rx="7.94" ry="8" style="fill:#fff;"/></g><g><path d="M237.37,927.96H8c-.83,0-1.5-.67-1.5-1.5s.67-1.5,1.5-1.5H236.89l266.22-187.23c.68-.48,1.61-.31,2.09,.36,.48,.68,.31,1.61-.36,2.09l-266.61,187.5c-.25,.18-.55,.27-.86,.27Z"/><circle cx="501.17" cy="741.12" r="8"/><circle cx="8" cy="926.46" r="8"/></g><g><path d="M425.06,1108.29H73.09c-.83,0-1.5-.67-1.5-1.5s.67-1.5,1.5-1.5H424.6l80.83-53.76c.69-.46,1.62-.27,2.08,.42,.46,.69,.27,1.62-.42,2.08l-81.21,54.01c-.25,.16-.54,.25-.83,.25Z"/><circle cx="506.27" cy="1052.79" r="8"/><circle cx="73.09" cy="1106.79" r="8"/></g><g><path d="M456.4,216.33c-.29,0-.57-.08-.83-.25l-80.83-53.76H73.22c-.83,0-1.5-.67-1.5-1.5s.67-1.5,1.5-1.5H375.19c.3,0,.58,.09,.83,.25l81.21,54.01c.69,.46,.88,1.39,.42,2.08-.29,.43-.76,.67-1.25,.67Z"/><circle cx="456.4" cy="214.83" r="8"/><circle cx="73.22" cy="160.82" r="8"/></g><g><path d="M495.2,552.33c-.28,0-.57-.08-.82-.25l-227.75-149.14H18.51c-.83,0-1.5-.67-1.5-1.5s.67-1.5,1.5-1.5h248.57c.29,0,.58,.09,.82,.25l228.13,149.38c.69,.45,.89,1.38,.43,2.08-.29,.44-.77,.68-1.26,.68Z"/><circle cx="495.2" cy="551.35" r="8"/><circle cx="18.51" cy="401.44" r="8"/></g></g></g></svg>