<?xml version="1.0" encoding="UTF-8"?><svg id="b" xmlns="http://www.w3.org/2000/svg" viewBox="0 0 1656.61 1225.07"><g id="c"><g><path d="M638.62,410.46c-.48,0-.95-.23-1.24-.66-.47-.69-.29-1.62,.4-2.08L1091.88,99.3c.25-.17,.54-.26,.84-.26h426.74c.83,0,1.5,.67,1.5,1.5s-.67,1.5-1.5,1.5h-426.28l-453.72,308.15c-.26,.18-.55,.26-.84,.26Z" style="fill:#fff;"/><circle cx="638.62" cy="408.95" r="8" style="fill:#fff;"/><circle cx="1519.46" cy="100.54" r="8" style="fill:#fff;"/></g><g><path d="M499.55,473.39c-.48,0-.95-.23-1.24-.66-.47-.69-.29-1.62,.4-2.08L1180.69,6.76c.25-.17,.54-.26,.84-.26h329.93c.83,0,1.5,.67,1.5,1.5s-.67,1.5-1.5,1.5h-329.47L500.39,473.13c-.26,.18-.55,.26-.84,.26Z" style="fill:#fff;"/><circle cx="498.4" cy="471.89" r="8" transform="translate(-47.23 888.27) rotate(-80.78)" style="fill:#fff;"/><circle cx="1511.46" cy="8" r="8" style="fill:#fff;"/></g><g><path d="M620.86,770.86c-.46,0-.91-.21-1.21-.61-.49-.67-.36-1.6,.31-2.1l598.07-444.25c.26-.19,.57-.3,.89-.3h379.39c.83,0,1.5,.67,1.5,1.5s-.67,1.5-1.5,1.5h-378.89l-597.67,443.96c-.27,.2-.58,.3-.89,.3Z" style="fill:#fff;"/><circle cx="620.86" cy="769.36" r="8" style="fill:#fff;"/><circle cx="1598.32" cy="325.1" r="8" style="fill:#fff;"/></g><g><path d="M681.02,707.6c-.46,0-.91-.21-1.2-.6-.5-.66-.36-1.6,.3-2.1L1388.39,172.68c.26-.2,.58-.3,.9-.3h115.14c.83,0,1.5,.67,1.5,1.5s-.67,1.5-1.5,1.5h-114.63L681.92,707.3c-.27,.2-.59,.3-.9,.3Z" style="fill:#fff;"/><circle cx="681.02" cy="706.1" r="8" style="fill:#fff;"/><circle cx="1504.43" cy="173.87" r="8" style="fill:#fff;"/></g><g><path d="M570.57,1161.27c-.46,0-.92-.21-1.21-.62-.49-.67-.34-1.61,.33-2.1L1647.11,372.92V240.94c0-.83,.67-1.5,1.5-1.5s1.5,.67,1.5,1.5v132.75c0,.48-.23,.93-.62,1.21L571.45,1160.98c-.27,.19-.58,.29-.88,.29Z" style="fill:#fff;"/><circle cx="570.57" cy="1161.34" r="8" style="fill:#fff;"/><circle cx="1648.61" cy="240.94" r="8" style="fill:#fff;"/></g><g><path d="M237.37,1038.24H8c-.83,0-1.5-.67-1.5-1.5s.67-1.5,1.5-1.5H236.89l266.22-187.23c.68-.48,1.61-.31,2.09,.36,.48,.68,.31,1.61-.36,2.09l-266.61,187.5c-.25,.18-.55,.27-.86,.27Z"/><circle cx="501.17" cy="851.4" r="8"/><circle cx="8" cy="1036.74" r="8"/></g><g><path d="M425.06,1218.57H73.09c-.83,0-1.5-.67-1.5-1.5s.67-1.5,1.5-1.5H424.6l80.83-53.76c.69-.46,1.62-.27,2.08,.42,.46,.69,.27,1.62-.42,2.08l-81.21,54.01c-.25,.16-.54,.25-.83,.25Z"/><circle cx="506.27" cy="1163.06" r="8"/><circle cx="73.09" cy="1217.07" r="8"/></g><g><path d="M506.4,326.6c-.29,0-.57-.08-.83-.25l-80.83-53.76H73.22c-.83,0-1.5-.67-1.5-1.5s.67-1.5,1.5-1.5H425.19c.3,0,.58,.09,.83,.25l81.21,54.01c.69,.46,.88,1.39,.42,2.08-.29,.43-.77,.67-1.25,.67Z"/><circle cx="506.4" cy="325.1" r="8"/><circle cx="73.22" cy="271.1" r="8"/></g><g><path d="M495.2,662.61c-.28,0-.57-.08-.82-.25l-227.75-149.14H18.51c-.83,0-1.5-.67-1.5-1.5s.67-1.5,1.5-1.5h248.57c.29,0,.58,.09,.82,.25l228.13,149.38c.69,.45,.89,1.38,.43,2.08-.29,.44-.77,.68-1.26,.68Z"/><circle cx="495.2" cy="661.63" r="8"/><circle cx="18.51" cy="511.72" r="8"/></g></g></svg>