<?xml version="1.0" encoding="UTF-8"?><svg id="b" xmlns="http://www.w3.org/2000/svg" viewBox="0 0 692.75 2119.38"><g id="c"><g><path d="M1,1945.66H686.09v173.72H1v-173.72Z" style="fill:#fff;"/><path d="M442.79,1522.78v10.92h243.3v173.72H1v-294.83c0-106.22,52.29-145.93,132.32-145.93h177.14c62.96,0,107.78,23.83,124.85,85.37l250.77-117.14v186.63l-243.3,101.25Zm-308.4,10.92h181.41v-68.5c0-16.88-7.47-24.82-23.48-24.82H157.87c-16.01,0-23.48,7.94-23.48,24.82v68.5Z" style="fill:none; stroke:#fff; stroke-miterlimit:10; stroke-width:2px;"/><path d="M22.6,901.36l324.41-60.55L22.6,787.2v-169.75l521.82,124.09c92.84,25.81,148.33,74.45,148.33,187.62v83.39h-131.26v-73.46c0-28.79-6.4-48.64-42.68-59.56l-6.4-1.99v64.52L22.6,1078.06v-176.7Z" style="fill:#fff;"/><path d="M432.12,174.72c-16.01,0-23.48,7.94-23.48,24.82v95.3c0,103.24-54.42,134.01-134.46,134.01H133.32C53.29,428.85,1,390.13,1,283.92V147.92C1,41.7,53.29,2.99,133.32,2.99h82.17V176.71h-57.62c-16.01,0-23.48,7.94-23.48,24.82v28.79c0,16.88,7.47,24.82,23.48,24.82h101.38c16.01,0,23.48-7.94,23.48-24.82v-93.31C282.72,33.76,332.88,1,412.91,1h140.86c80.03,0,132.32,38.71,132.32,144.93v135.01c0,106.22-52.29,145.93-132.32,145.93h-82.17V253.14h57.62c16.01,0,23.48-7.94,23.48-24.82v-28.79c0-16.88-7.47-24.82-23.48-24.82h-97.11Z" style="fill:none; stroke:#fff; stroke-miterlimit:10; stroke-width:2px;"/></g></g></svg>